<?xml version="1.0" encoding="utf-8"?>
<!-- Generator: Adobe Illustrator 16.0.4, SVG Export Plug-In . SVG Version: 6.00 Build 0)  -->
<!DOCTYPE svg PUBLIC "-//W3C//DTD SVG 1.1//EN" "http://www.w3.org/Graphics/SVG/1.1/DTD/svg11.dtd">
<svg version="1.1" id="Capa_1" xmlns="http://www.w3.org/2000/svg" xmlns:xlink="http://www.w3.org/1999/xlink" x="0px" y="0px"
	 width="22px" height="21.812px" viewBox="0 0 22 21.812" enable-background="new 0 0 22 21.812" xml:space="preserve">
<g>
	<path d="M0,0v21.812h22V0H0z M20.188,20.001c-1.576,0-16.797,0-18.375,0c0-1.576,0-16.614,0-18.188c1.576,0,16.798,0,18.375,0
		C20.188,3.387,20.188,18.425,20.188,20.001z"/>
	<path d="M5.791,12.591c0.06,0.21,0.093,0.668,0.093,1.371c0,0.603,0.031,1.046,0.096,1.327c0.065,0.28,0.192,0.517,0.382,0.708
		c0.189,0.19,0.421,0.328,0.696,0.411c0.276,0.082,0.672,0.123,1.187,0.123H8.55v-1.375c-0.411,0-0.678-0.026-0.802-0.078
		c-0.123-0.052-0.215-0.126-0.276-0.227c-0.06-0.099-0.09-0.274-0.09-0.525c0-0.177-0.016-0.583-0.046-1.218
		c-0.023-0.417-0.073-0.749-0.15-0.997c-0.076-0.25-0.186-0.46-0.33-0.635c-0.143-0.174-0.327-0.325-0.552-0.455
		c0.255-0.165,0.444-0.323,0.569-0.477c0.124-0.152,0.226-0.345,0.306-0.58c0.079-0.235,0.129-0.542,0.149-0.92
		c0.034-0.67,0.053-1.126,0.053-1.367c0-0.236,0.029-0.404,0.086-0.501c0.058-0.097,0.146-0.17,0.266-0.219
		C7.853,6.91,8.126,6.886,8.55,6.886V5.518H8.245c-0.501,0-0.868,0.035-1.1,0.104c-0.344,0.103-0.606,0.243-0.787,0.42
		C6.178,6.22,6.054,6.455,5.985,6.748C5.917,7.039,5.884,7.556,5.884,8.294c0,0.457-0.017,0.773-0.048,0.957
		C5.798,9.495,5.727,9.698,5.625,9.861c-0.104,0.163-0.224,0.277-0.367,0.347c-0.14,0.068-0.349,0.111-0.629,0.127v1.376
		c0.352,0.018,0.612,0.093,0.783,0.226C5.581,12.068,5.708,12.285,5.791,12.591z"/>
	<path d="M9.832,15.27l0.312,0.665c0.344-0.123,0.629-0.292,0.853-0.505s0.375-0.455,0.455-0.724
		c0.081-0.271,0.121-0.64,0.121-1.104v-1.15H9.962v1.61h0.777c-0.006,0.318-0.08,0.571-0.216,0.764
		C10.386,15.014,10.155,15.163,9.832,15.27z"/>
	<rect x="9.962" y="7.973" width="1.611" height="1.612"/>
	<path d="M14.426,16.426c0.346-0.104,0.612-0.243,0.793-0.421c0.18-0.177,0.303-0.414,0.368-0.708
		c0.065-0.295,0.101-0.813,0.101-1.553c0-0.452,0.016-0.769,0.047-0.953c0.041-0.244,0.113-0.447,0.215-0.61
		c0.101-0.161,0.221-0.278,0.363-0.346c0.141-0.068,0.349-0.11,0.629-0.125h-0.002v-1.375c-0.353-0.02-0.612-0.096-0.785-0.228
		c-0.17-0.131-0.297-0.35-0.383-0.654c-0.058-0.214-0.086-0.67-0.086-1.368c0-0.604-0.033-1.045-0.1-1.324
		c-0.066-0.283-0.193-0.519-0.38-0.712c-0.188-0.192-0.419-0.327-0.694-0.408c-0.277-0.08-0.673-0.121-1.188-0.121H13.02v1.366
		c0.432,0,0.711,0.026,0.834,0.078c0.125,0.051,0.211,0.124,0.258,0.219c0.048,0.095,0.072,0.286,0.076,0.573
		c0.021,0.909,0.054,1.497,0.095,1.765c0.065,0.388,0.188,0.709,0.366,0.96c0.131,0.177,0.336,0.355,0.619,0.539
		c-0.218,0.124-0.395,0.271-0.535,0.438c-0.141,0.165-0.252,0.369-0.334,0.607c-0.084,0.24-0.137,0.559-0.155,0.954
		c-0.031,0.658-0.05,1.104-0.05,1.336c-0.004,0.234-0.032,0.399-0.092,0.497c-0.061,0.098-0.153,0.172-0.278,0.224
		c-0.126,0.052-0.394,0.077-0.804,0.077v1.375h0.306C13.825,16.529,14.193,16.493,14.426,16.426z"/>
</g>
</svg>
