<?xml version="1.0" encoding="UTF-8" standalone="no"?>
<!DOCTYPE svg PUBLIC "-//W3C//DTD SVG 1.1//EN" "http://www.w3.org/Graphics/SVG/1.1/DTD/svg11.dtd">
<!-- Generated by Microsoft Visio, SVG Export composite_score.svg Page-1 -->
<svg xmlns="http://www.w3.org/2000/svg" xmlns:xlink="http://www.w3.org/1999/xlink" xmlns:ev="http://www.w3.org/2001/xml-events"
		xmlns:v="http://schemas.microsoft.com/visio/2003/SVGExtensions/" width="0.366875in" height="0.268135in"
		viewBox="0 0 26.415 19.3057" xml:space="preserve" color-interpolation-filters="sRGB" class="st2">
	<v:documentProperties v:langID="1033" v:viewMarkup="false"/>

	<style type="text/css">
	<![CDATA[
		.st1 {fill:#efedf5;stroke:none;stroke-linecap:butt;stroke-width:0.75}
		.st2 {fill:none;fill-rule:evenodd;font-size:12px;overflow:visible;stroke-linecap:square;stroke-miterlimit:3}
	]]>
	</style>

	<g v:mID="0" v:index="1" v:groupContext="foregroundPage">
		<title>Page-1</title>
		<v:pageProperties v:drawingScale="1" v:pageScale="1" v:drawingUnits="19" v:shadowOffsetX="9" v:shadowOffsetY="-9"/>
		<g id="shape1-1" v:mID="1" v:groupContext="shape" transform="translate(6.852,-14.1562)">
			<title>Sheet.1</title>
			<rect x="0" y="15.4808" width="18.813" height="3.825" class="st1"/>
		</g>
		<g id="shape2-3" v:mID="2" v:groupContext="shape" transform="translate(6.852,-7.99575)">
			<title>Sheet.2</title>
			<rect x="0" y="15.4823" width="18.813" height="3.8235" class="st1"/>
		</g>
		<g id="shape3-5" v:mID="3" v:groupContext="shape" transform="translate(6.852,-1.40775)">
			<title>Sheet.3</title>
			<rect x="0" y="15.4823" width="18.813" height="3.8235" class="st1"/>
		</g>
		<g id="shape4-7" v:mID="4" v:groupContext="shape" transform="translate(0.75,-13.584)">
			<title>Sheet.4</title>
			<path d="M1.14 15.37 L1.15 15.37 L1.15 19.31 L2.28 19.31 L2.28 14.33 L1.32 14.33 L0 14.95 L0.19 15.82 L1.14 15.37 Z"
					class="st1"/>
		</g>
		<g id="shape5-9" v:mID="5" v:groupContext="shape" transform="translate(0.75,-7.42575)">
			<title>Sheet.5</title>
			<path d="M3.46 18.37 L1.61 18.37 L1.61 18.35 L2.06 17.98 C2.77 17.35 3.36 16.7 3.36 15.88 C3.36 14.99 2.76 14.35 1.65
						 14.35 C1 14.35 0.42 14.57 0.06 14.85 L0.38 15.66 C0.64 15.47 1.01 15.26 1.43 15.26 C1.99 15.26 2.22 15.58
						 2.22 15.97 C2.21 16.55 1.7 17.09 0.62 18.05 L0 18.61 L0 19.31 L3.46 19.31 L3.46 18.37 Z" class="st1"/>
		</g>
		<g id="shape6-11" v:mID="6" v:groupContext="shape" transform="translate(0.79725,-0.75)">
			<title>Sheet.6</title>
			<path d="M2.43 16.58 L2.43 16.56 C3.04 16.35 3.34 15.93 3.34 15.41 C3.34 14.72 2.75 14.17 1.7 14.17 C1.05 14.17 0.46
						 14.35 0.16 14.54 L0.4 15.38 C0.6 15.26 1.02 15.09 1.43 15.09 C1.93 15.09 2.17 15.31 2.17 15.61 C2.17 16.03
						 1.67 16.18 1.28 16.18 L0.83 16.18 L0.83 17.01 L1.31 17.01 C1.81 17.01 2.3 17.23 2.3 17.73 C2.3 18.1 2 18.39
						 1.39 18.39 C0.92 18.39 0.44 18.2 0.24 18.08 L0 18.96 C0.29 19.14 0.83 19.31 1.48 19.31 C2.74 19.31 3.51
						 18.66 3.51 17.79 C3.51 17.13 3.03 16.68 2.43 16.58 Z" class="st1"/>
		</g>
	</g>
</svg>
