<?xml version="1.0" encoding="UTF-8" standalone="no"?>
<!DOCTYPE svg PUBLIC "-//W3C//DTD SVG 1.1//EN" "http://www.w3.org/Graphics/SVG/1.1/DTD/svg11.dtd">
<!-- Generated by Microsoft Visio, SVG Export control.svg Page-1 -->
<svg xmlns="http://www.w3.org/2000/svg" xmlns:xlink="http://www.w3.org/1999/xlink" xmlns:ev="http://www.w3.org/2001/xml-events"
		xmlns:v="http://schemas.microsoft.com/visio/2003/SVGExtensions/" width="5.35417in" height="4.6875in"
		viewBox="0 0 385.5 337.5" xml:space="preserve" color-interpolation-filters="sRGB" class="st2">
	<v:documentProperties v:langID="1033" v:viewMarkup="false"/>

	<style type="text/css">
	<![CDATA[
		.st1 {fill:#efedf5;stroke:none;stroke-linecap:butt;stroke-width:0.75}
		.st2 {fill:none;fill-rule:evenodd;font-size:12px;overflow:visible;stroke-linecap:square;stroke-miterlimit:3}
	]]>
	</style>

	<g v:mID="0" v:index="1" v:groupContext="foregroundPage">
		<title>Page-1</title>
		<v:pageProperties v:drawingScale="1" v:pageScale="1" v:drawingUnits="19" v:shadowOffsetX="9" v:shadowOffsetY="-9"/>
		<g id="shape1-1" v:mID="1" v:groupContext="shape" transform="translate(0.75,-0.75)">
			<title>Sheet.1</title>
			<path d="M168 25.5 L168 19.5 C168 9.6 159.9 1.5 150 1.5 L90 1.5 C80.1 1.5 72 9.6 72 19.5 L72 25.5 L0 25.5 L0 73.5 L72
						 73.5 L72 79.5 C72 89.4 80.1 97.5 90 97.5 L150 97.5 C159.9 97.5 168 89.4 168 79.5 L168 73.5 L384 73.5 L384
						 25.5 L168 25.5 ZM96 73.5 L96 25.5 L144 25.5 L144 73.5 L96 73.5 ZM312 139.5 C312 129.6 303.9 121.5 294 121.5
						 L234 121.5 C224.1 121.5 216 129.6 216 139.5 L216 145.5 L0 145.5 L0 193.5 L216 193.5 L216 199.5 C216 209.4
						 224.1 217.5 234 217.5 L294 217.5 C303.9 217.5 312 209.4 312 199.5 L312 193.5 L384 193.5 L384 145.5 L312
						 145.5 L312 139.5 ZM240 193.5 L240 145.5 L288 145.5 L288 193.5 L240 193.5 ZM168 259.5 C168 249.6 159.9 241.5
						 150 241.5 L90 241.5 C80.1 241.5 72 249.6 72 259.5 L72 265.5 L0 265.5 L0 313.5 L72 313.5 L72 319.5 C72 329.4
						 80.1 337.5 90 337.5 L150 337.5 C159.9 337.5 168 329.4 168 319.5 L168 313.5 L384 313.5 L384 265.5 L168 265.5
						 L168 259.5 ZM96 313.5 L96 265.5 L144 265.5 L144 313.5 L96 313.5 Z" class="st1"/>
		</g>
	</g>
</svg>
