<?xml version="1.0" encoding="UTF-8" standalone="no"?>
<!DOCTYPE svg PUBLIC "-//W3C//DTD SVG 1.1//EN" "http://www.w3.org/Graphics/SVG/1.1/DTD/svg11.dtd">
<!-- Generated by Microsoft Visio, SVG Export metric.svg Page-1 -->
<svg xmlns="http://www.w3.org/2000/svg" xmlns:xlink="http://www.w3.org/1999/xlink" xmlns:ev="http://www.w3.org/2001/xml-events"
		xmlns:v="http://schemas.microsoft.com/visio/2003/SVGExtensions/" width="0.304583in" height="0.301406in"
		viewBox="0 0 21.93 21.7012" xml:space="preserve" color-interpolation-filters="sRGB" class="st2">
	<v:documentProperties v:langID="1033" v:viewMarkup="false"/>

	<style type="text/css">
	<![CDATA[
		.st1 {fill:#efedf5;stroke:none;stroke-linecap:butt;stroke-width:0.75}
		.st2 {fill:none;fill-rule:evenodd;font-size:12px;overflow:visible;stroke-linecap:square;stroke-miterlimit:3}
	]]>
	</style>

	<g v:mID="0" v:index="1" v:groupContext="foregroundPage">
		<title>Page-1</title>
		<v:pageProperties v:drawingScale="1" v:pageScale="1" v:drawingUnits="19" v:shadowOffsetX="9" v:shadowOffsetY="-9"/>
		<g id="shape1-1" v:mID="1" v:groupContext="shape" transform="translate(0.75,-0.75)">
			<title>Sheet.1</title>
			<path d="M16.37 1.5 L0 17.56 L4.06 21.7 L20.43 5.64 L16.37 1.5 ZM17.61 6.99 L17.05 7.54 L16.24 6.71 L15.72 7.22 L16.54
						 8.05 L15.76 8.8 L14.51 7.52 L13.99 8.03 L15.25 9.31 L14.68 9.86 L13.87 9.03 L13.35 9.54 L14.17 10.37 L13.41
						 11.11 L12.02 9.7 L11.5 10.21 L12.89 11.62 L12.33 12.17 L11.38 11.21 L10.86 11.72 L11.81 12.68 L11.04 13.44
						 L9.65 12.02 L9.13 12.53 L10.52 13.95 L9.96 14.5 L9.01 13.53 L8.49 14.04 L9.44 15.01 L8.73 15.7 L7.34 14.29
						 L6.82 14.8 L8.21 16.21 L7.65 16.76 L6.7 15.8 L6.19 16.3 L7.13 17.27 L6.37 18.03 L4.97 16.61 L4.46 17.12
						 L5.85 18.54 L5.28 19.09 L4.34 18.12 L3.82 18.63 L4.77 19.6 L4.07 20.28 L1.43 17.58 L16.36 2.93 L19.01 5.62
						 L18.13 6.48 L16.88 5.2 L16.36 5.71 L17.61 6.99 Z" class="st1"/>
		</g>
	</g>
</svg>
