<?xml version="1.0" encoding="utf-8"?>
<!-- Generator: Adobe Illustrator 16.0.4, SVG Export Plug-In . SVG Version: 6.00 Build 0)  -->
<!DOCTYPE svg PUBLIC "-//W3C//DTD SVG 1.1//EN" "http://www.w3.org/Graphics/SVG/1.1/DTD/svg11.dtd">
<svg version="1.1" id="Capa_1" xmlns="http://www.w3.org/2000/svg" xmlns:xlink="http://www.w3.org/1999/xlink" x="0px" y="0px"
	 width="23.305px" height="22.807px" viewBox="0 0 23.305 22.807" enable-background="new 0 0 23.305 22.807" xml:space="preserve">
<g>
	<rect x="0" y="9.218" width="4.115" height="12.115"/>
	<path d="M23.303,20.484l-4.912-4.914l-0.638,0.389l-0.968-0.938c1.512-2.122,1.332-5.08-0.57-6.983
		c-0.13-0.13-0.278-0.228-0.418-0.341V0h-4.112v6.509c-0.599,0.076-1.18,0.253-1.731,0.529V5.06H5.845v16.274h4.108v-4.619
		c0.551,0.275,1.133,0.452,1.731,0.528v4.09h4.112v-4.781l0.634,0.611l-0.365,0.733l4.913,4.91c0,0,1.068,0.014,1.712-0.722
		C23.337,21.349,23.303,20.484,23.303,20.484z M9.419,8.917c1.627-1.634,4.28-1.635,5.914-0.001c1.632,1.635,1.633,4.28-0.003,5.919
		c-1.631,1.631-4.281,1.633-5.916-0.002C7.78,13.201,7.781,10.551,9.419,8.917z"/>
</g>
</svg>
