<?xml version="1.0" encoding="UTF-8" standalone="no"?>
<!-- Created with Inkscape (http://www.inkscape.org/) -->

<svg
   xmlns:dc="http://purl.org/dc/elements/1.1/"
   xmlns:cc="http://creativecommons.org/ns#"
   xmlns:rdf="http://www.w3.org/1999/02/22-rdf-syntax-ns#"
   xmlns:svg="http://www.w3.org/2000/svg"
   xmlns="http://www.w3.org/2000/svg"
   version="1.1"
   width="600"
   height="600"
   id="svg2">
  <defs
     id="defs4" />
  <metadata
     id="metadata7">
    <rdf:RDF>
      <cc:Work
         rdf:about="">
        <dc:format>image/svg+xml</dc:format>
        <dc:type
           rdf:resource="http://purl.org/dc/dcmitype/StillImage" />
        <dc:title></dc:title>
      </cc:Work>
    </rdf:RDF>
  </metadata>
  <g
     transform="translate(132.20339,-279.48084)"
     id="layer1">
    <g
       transform="translate(67.796692,-172.88148)"
       id="layer1-1">
      <path
         d="m 332.85714,174.28572 a 112.85714,75.714287 0 1 1 -225.71428,0 112.85714,75.714287 0 1 1 225.71428,0 z"
         transform="matrix(1.6456431,0,0,2.4529397,-162.04149,424.84986)"
         id="path2985-7"
         style="fill:#d13400;fill-opacity:1;stroke:#b20c10;stroke-width:14.21251392;stroke-miterlimit:4;stroke-opacity:1;stroke-dasharray:none" />
    </g>
    <g
       transform="translate(-32.203308,-372.88147)"
       id="layer1-8">
      <path
         d="m 332.85714,174.28572 a 112.85714,75.714287 0 1 1 -225.71428,0 112.85714,75.714287 0 1 1 225.71428,0 z"
         transform="matrix(1.6456431,0,0,2.4529397,-162.04149,424.84986)"
         id="path2985-2"
         style="fill:#fffd00;fill-opacity:1;stroke:#ffe100;stroke-width:14.21251392;stroke-miterlimit:4;stroke-opacity:1;stroke-dasharray:none" />
    </g>
    <g
       transform="translate(-132.20339,-172.88138)"
       id="layer1-0">
      <path
         d="m 332.85714,174.28572 a 112.85714,75.714287 0 1 1 -225.71428,0 112.85714,75.714287 0 1 1 225.71428,0 z"
         transform="matrix(1.6456431,0,0,2.4529397,-162.04149,424.84986)"
         id="path2985"
         style="fill:#00c800;fill-opacity:1;stroke:#008000;stroke-width:14.21243668;stroke-miterlimit:4;stroke-opacity:1;stroke-dasharray:none" />
    </g>
  </g>
</svg>
